<svg xmlns="http://www.w3.org/2000/svg" width="50" height="50" viewBox="0 0 50 50" fill="none"><rect width="50" height="50" rx="25" transform="matrix(1 1.74846e-07 1.74846e-07 -1 0 50)" fill="#65E5B5"></rect><path d="M31.2426 19.7579C31.2426 19.2056 30.7949 18.7579 30.2426 18.7579L21.2426 18.7579C20.6903 18.7579 20.2426 19.2056 20.2426 19.7579C20.2426 20.3102 20.6903 20.7579 21.2426 20.7579H29.2426V28.7579C29.2426 29.3102 29.6903 29.7579 30.2426 29.7579C30.7949 29.7579 31.2426 29.3102 31.2426 28.7579L31.2426 19.7579ZM20.0626 31.3521L30.9497 20.465L29.5355 19.0508L18.6484 29.9379L20.0626 31.3521Z" fill="#171717"></path></svg>